<svg version="1.0" xmlns="http://www.w3.org/2000/svg" width="111" height="85"
  viewBox="100 -100 550 1"
  preserveAspectRatio="xMidYMid meet">
  <g transform="translate(0.000000,300.000000) scale(0.120000,-0.120000)" fill="#ffffff"
    stroke="none">
    <path
      d="M1370 3950 l0 -430 75 0 75 0 0 293 c0 346 3 346 122 -9 l91 -274 72 -6 71 -6 96 290 c117 353 137 352 119 -11 l-15 -277 82 0 82 0 0 430 0 430 -106 0 -107 0 -100 -311 c-55 -171 -107 -313 -115 -315 -8 -2 -61 138 -117 311 l-103 315 -111 0 -111 0 0 -430z M2569 4095 c-52 -157 -120 -351 -151 -431 l-55 -146 93 6 c92 6 93 7 120 101 l26 95 167 0 167 0 26 -100 26 -100 94 0 95 0 -56 145 c-30 80 -98 273 -150 430 l-94 285 -107 0 -107 0 -94 -285z m263 -56 c63 -199 66 -192 -67 -189 -89 2 -113 9 -107 31 103 370 106 372 174 158z M3300 3950 l0 -430 80 0 80 0 0 180 0 180 66 0 c102 0 141 -42 193 -208 l48 -152 87 0 c47 0 86 2 85 5 -6 56 -125 334 -158 368 l-45 47 50 19 c149 56 155 292 9 381 -54 33 -100 40 -280 40 l-215 0 0 -430z m409 259 c92 -93 6 -209 -153 -209 l-96 0 0 120 0 120 109 0 c72 0 119 -11 140 -31z M4005 4335 c195 -302 275 -492 275 -654 l0 -161 80 0 80 0 0 163 c0 163 81 356 273 648 l32 49 -91 0 -91 0 -99 -183 c-114 -210 -99 -213 -227 48 l-66 135 -98 0 c-97 0 -97 0 -68 -45z"
      fill="url(#paint0_linear_994_94)" />
    <!-- <path
      d="M2569 4095 c-52 -157 -120 -351 -151 -431 l-55 -146 93 6 c92 6 93 7 120 101 l26 95 167 0 167 0 26
    -100 26 -100 94 0 95 0 -56 145 c-30 80 -98 273 -150 430 l-94 285 -107 0 -107 0 -94 -285z m263
    -56 c63 -199 66 -192 -67 -189 -89 2 -113 9 -107 31 103 370 106 372 174 158z"
    fill="url(#paint1_linear_994_94)" /> -->
    <!-- <path
      d="M3300 3950 l0 -430 80 0 80 0 0 180 0 180 66 0 c102 0 141 -42 193 -208 l48 -152 87 0 c47 0 86 2
    85 5 -6 56 -125 334 -158 368 l-45 47 50 19 c149 56 155 292 9 381 -54 33 -100 40 -280 40 l-215 0
    0 -430z m409 259 c92 -93 6 -209 -153 -209 l-96 0 0 120 0 120 109 0 c72 0 119 -11 140 -31z"  /> -->
    <!-- <path
      d="M4005 4335 c195 -302 275 -492 275 -654 l0 -161 80 0 80 0 0 163 c0 163 81 356 273 648 l32 49 -91
    0 -91 0 -99 -183 c-114 -210 -99 -213 -227 48 l-66 135 -98 0 c-97 0 -97 0 -68 -45z" /> -->
    <path
      d="M1120 2435 l0 -435 87 0 88 0 -10 182 -11 183 177 -8 176 -7 0 69 0 70 -173 -6 -174 -6 0 133 0 134 190 -7 190 -7 0 70 0 70 -270 0 -270 0 0 -435z" />
    <path
      d="M1814 2868 c-7 -8 -14 -207 -14 -441 l0 -427 90 0 90 0 0 180 0 180 77 0 c99 0 129 -34 182 -215 l43 -145 91 0 c79 0 89 5 77 35 -8 19 -30 81 -50 138 -46 129 -78 190 -118 223 -25 21 -26 29 -6 37 150 62 186 264 67 370 -60 54 -74 57 -248 57 -102 0 -203 5 -226 11 -22 6 -47 5 -55 -3z m419 -179 c76 -103 10 -189 -144 -189 l-109 0 0 122 0 123 113 -9 c79 -7 121 -21 140 -47z" />
    <path
      d="M2500 2868 c0 -6 67 -131 148 -277 l149 -265 -12 -163 -11 -163 93 0 93 0 0 172 c0 179 40 281 234 593 64 104 60 118 -37 111 -83 -6 -84 -7 -175 -181 -108 -205 -106 -205 -174 -70 -115 227 -141 255 -228 255 -44 0 -80 -5 -80 -12z" />
    <path
      d="M3368 2862 c-4 -5 -8 -201 -8 -435 l0 -427 186 0 c344 0 487 83 534 310 47 228 -24 428 -180 504 -83 40 -502 78 -532 48z m446 -169 c77 -40 106 -109 106 -253 0 -217 -77 -300 -280 -300 l-110 0 5 295 c2 162 4 299 5 303 1 18 221 -17 274 -45z" />
    <path
      d="M4458 2830 c-22 -51 -278 -808 -278 -820 0 -6 39 -10 86 -10 l86 0 26 101 26 100 171 -5 171 -6 28 -95 27 -95 92 0 c79 0 89 5 77 35 -8 19 -76 214 -151 434 l-137 398 -104 2 c-85 1 -106 -6 -120 -39z m187 -325 l50 -165 -117 0 c-65 0 -118 5 -118 12 0 48 107 349 119 335 8 -9 38 -91 66 -182z" />
  </g>
  <defs>
    <linearGradient id="paint0_linear_994_94">
      <stop offset="0.183111" stop-color="#a222d1" />
      <stop offset="0.432593" stop-color="#42047e" />
      <stop offset="0.854443" stop-color="#04f2ceb7" />
      <stop offset="1" stop-color="#012426" />
    </linearGradient>
  </defs>
</svg> 